{
  "accessors": [
    {
      "bufferView": 2,
      "componentType": 5126,
      "count": 65532,
      "max": [
        79.58561706542969,
        9.465584754943848,
        -23.908130645751953
      ],
      "min": [
        -15.774924278259277,
        -12.273208618164063,
        -69.73279571533203
      ],
      "type": "VEC3"
    },
    {
      "bufferView": 2,
      "byteOffset": 786384,
      "componentType": 5126,
      "count": 65532,
      "max": [
        0.9999661445617676,
        0.9851581454277039,
        0.9999871253967285
      ],
      "min": [
        -0.9999909996986389,
        -1.0,
        -0.9999473690986633
      ],
      "type": "VEC3"
    },
    {
      "bufferView": 1,
      "componentType": 5126,
      "count": 65532,
      "max": [
        0.9767670035362244,
        0.9899929761886597
      ],
      "min": [
        0.017961999401450157,
        0.034001000225543976
      ],
      "type": "VEC2"
    },
    {
      "bufferView": 0,
      "componentType": 5125,
      "count": 352437,
      "type": "SCALAR"
    },
    {
      "bufferView": 2,
      "byteOffset": 1572768,
      "componentType": 5126,
      "count": 65532,
      "max": [
        63.83541488647461,
        9.24417781829834,
        13.987558364868164
      ],
      "min": [
        -22.556535720825195,
        -12.237306594848633,
        -49.48301315307617
      ],
      "type": "VEC3"
    },
    {
      "bufferView": 2,
      "byteOffset": 2359152,
      "componentType": 5126,
      "count": 65532,
      "max": [
        0.9992246031761169,
        0.998240053653717,
        0.9999279975891113
      ],
      "min": [
        -0.9999382495880127,
        -1.0,
        -0.9999576807022095
      ],
      "type": "VEC3"
    },
    {
      "bufferView": 1,
      "byteOffset": 524256,
      "componentType": 5126,
      "count": 65532,
      "max": [
        0.996291995048523,
        0.9993810057640076
      ],
      "min": [
        0.001979999942705035,
        0.0011579999700188637
      ],
      "type": "VEC2"
    },
    {
      "bufferView": 0,
      "byteOffset": 1409748,
      "componentType": 5125,
      "count": 348276,
      "type": "SCALAR"
    },
    {
      "bufferView": 2,
      "byteOffset": 3145536,
      "componentType": 5126,
      "count": 65532,
      "max": [
        96.42965698242188,
        9.587540626525879,
        6.732710838317871
      ],
      "min": [
        5.664539813995361,
        -15.12646770477295,
        -54.963626861572266
      ],
      "type": "VEC3"
    },
    {
      "bufferView": 2,
      "byteOffset": 3931920,
      "componentType": 5126,
      "count": 65532,
      "max": [
        0.9999967813491821,
        0.9988808035850525,
        0.999980092048645
      ],
      "min": [
        -0.999943733215332,
        -1.0,
        -0.9999610781669617
      ],
      "type": "VEC3"
    },
    {
      "bufferView": 1,
      "byteOffset": 1048512,
      "componentType": 5126,
      "count": 65532,
      "max": [
        0.999002993106842,
        0.9993810057640076
      ],
      "min": [
        0.000582000007852912,
        0.00018899999849963933
      ],
      "type": "VEC2"
    },
    {
      "bufferView": 0,
      "byteOffset": 2802852,
      "componentType": 5125,
      "count": 338013,
      "type": "SCALAR"
    },
    {
      "bufferView": 2,
      "byteOffset": 4718304,
      "componentType": 5126,
      "count": 65532,
      "max": [
        86.41090393066406,
        9.460921287536621,
        25.055652618408203
      ],
      "min": [
        1.7823259830474854,
        -14.53400707244873,
        -74.57428741455078
      ],
      "type": "VEC3"
    },
    {
      "bufferView": 2,
      "byteOffset": 5504688,
      "componentType": 5126,
      "count": 65532,
      "max": [
        0.9998345375061035,
        0.9999544024467468,
        0.9999871253967285
      ],
      "min": [
        -0.9999909996986389,
        -0.9999998807907104,
        -0.9999931454658508
      ],
      "type": "VEC3"
    },
    {
      "bufferView": 1,
      "byteOffset": 1572768,
      "componentType": 5126,
      "count": 65532,
      "max": [
        0.9999889731407166,
        0.9994180202484131
      ],
      "min": [
        0.0006259999936446548,
        0.00016599999798927456
      ],
      "type": "VEC2"
    },
    {
      "bufferView": 0,
      "byteOffset": 4154904,
      "componentType": 5125,
      "count": 328524,
      "type": "SCALAR"
    },
    {
      "bufferView": 2,
      "byteOffset": 6291072,
      "componentType": 5126,
      "count": 65532,
      "max": [
        58.651878356933594,
        9.375077247619629,
        7.214588165283203
      ],
      "min": [
        -22.556596755981445,
        -12.273208618164063,
        -75.67906951904297
      ],
      "type": "VEC3"
    },
    {
      "bufferView": 2,
      "byteOffset": 7077456,
      "componentType": 5126,
      "count": 65532,
      "max": [
        0.9999822974205017,
        0.9999569058418274,
        0.9986039996147156
      ],
      "min": [
        -0.9999969005584717,
        -1.0,
        -0.9999660849571228
      ],
      "type": "VEC3"
    },
    {
      "bufferView": 1,
      "byteOffset": 2097024,
      "componentType": 5126,
      "count": 65532,
      "max": [
        0.9994410276412964,
        0.9994930028915405
      ],
      "min": [
        0.0005070000188425183,
        0.00013899999612476677
      ],
      "type": "VEC2"
    },
    {
      "bufferView": 0,
      "byteOffset": 5469000,
      "componentType": 5125,
      "count": 308970,
      "type": "SCALAR"
    },
    {
      "bufferView": 2,
      "byteOffset": 7863840,
      "componentType": 5126,
      "count": 65532,
      "max": [
        60.321327209472656,
        8.266032218933105,
        13.817988395690918
      ],
      "min": [
        -25.262235641479492,
        -12.191823959350586,
        -40.57815933227539
      ],
      "type": "VEC3"
    },
    {
      "bufferView": 2,
      "byteOffset": 8650224,
      "componentType": 5126,
      "count": 65532,
      "max": [
        0.9999220371246338,
        1.0,
        0.9999973177909851
      ],
      "min": [
        -0.9999396204948425,
        -1.0,
        -0.9999924898147583
      ],
      "type": "VEC3"
    },
    {
      "bufferView": 1,
      "byteOffset": 2621280,
      "componentType": 5126,
      "count": 65532,
      "max": [
        0.9999650120735168,
        0.9994900226593018
      ],
      "min": [
        1.1000000085914508e-05,
        4.8999998398358e-05
      ],
      "type": "VEC2"
    },
    {
      "bufferView": 0,
      "byteOffset": 6704880,
      "componentType": 5125,
      "count": 265593,
      "type": "SCALAR"
    },
    {
      "bufferView": 2,
      "byteOffset": 9436608,
      "componentType": 5126,
      "count": 65532,
      "max": [
        59.93027877807617,
        8.314065933227539,
        22.89130973815918
      ],
      "min": [
        12.75004768371582,
        -12.156078338623047,
        -37.04414367675781
      ],
      "type": "VEC3"
    },
    {
      "bufferView": 2,
      "byteOffset": 10222992,
      "componentType": 5126,
      "count": 65532,
      "max": [
        0.9999853372573853,
        0.9999688267707825,
        0.9999105930328369
      ],
      "min": [
        -0.999998152256012,
        -0.9999998807907104,
        -0.9999898076057434
      ],
      "type": "VEC3"
    },
    {
      "bufferView": 1,
      "byteOffset": 3145536,
      "componentType": 5126,
      "count": 65532,
      "max": [
        0.9999909996986389,
        0.9994890093803406
      ],
      "min": [
        9.000000318337698e-06,
        3.999999989900971e-06
      ],
      "type": "VEC2"
    },
    {
      "bufferView": 0,
      "byteOffset": 7767252,
      "componentType": 5125,
      "count": 282495,
      "type": "SCALAR"
    },
    {
      "bufferView": 2,
      "byteOffset": 11009376,
      "componentType": 5126,
      "count": 65532,
      "max": [
        84.24383544921875,
        8.745067596435547,
        32.45252990722656
      ],
      "min": [
        35.4410285949707,
        -4.915775775909424,
        -10.376057624816895
      ],
      "type": "VEC3"
    },
    {
      "bufferView": 2,
      "byteOffset": 11795760,
      "componentType": 5126,
      "count": 65532,
      "max": [
        0.9999902248382568,
        1.0,
        0.9999757409095764
      ],
      "min": [
        -0.9999802112579346,
        -0.9999994039535522,
        -0.9999931454658508
      ],
      "type": "VEC3"
    },
    {
      "bufferView": 1,
      "byteOffset": 3669792,
      "componentType": 5126,
      "count": 65532,
      "max": [
        0.9999970197677612,
        0.9999949932098389
      ],
      "min": [
        3.999999989900971e-06,
        1.2999999853491317e-05
      ],
      "type": "VEC2"
    },
    {
      "bufferView": 0,
      "byteOffset": 8897232,
      "componentType": 5125,
      "count": 295305,
      "type": "SCALAR"
    },
    {
      "bufferView": 2,
      "byteOffset": 12582144,
      "componentType": 5126,
      "count": 65532,
      "max": [
        94.8219985961914,
        9.558916091918945,
        26.856653213500977
      ],
      "min": [
        13.797471046447754,
        -7.070697784423828,
        -56.44353103637695
      ],
      "type": "VEC3"
    },
    {
      "bufferView": 2,
      "byteOffset": 13368528,
      "componentType": 5126,
      "count": 65532,
      "max": [
        0.9999961256980896,
        0.9999924302101135,
        0.9999916553497314
      ],
      "min": [
        -0.9999876022338867,
        -1.0,
        -0.9999974370002747
      ],
      "type": "VEC3"
    },
    {
      "bufferView": 1,
      "byteOffset": 4194048,
      "componentType": 5126,
      "count": 65532,
      "max": [
        0.9999859929084778,
        0.9999409914016724
      ],
      "min": [
        6.000000212225132e-06,
        4.999999873689376e-06
      ],
      "type": "VEC2"
    },
    {
      "bufferView": 0,
      "byteOffset": 10078452,
      "componentType": 5125,
      "count": 273810,
      "type": "SCALAR"
    },
    {
      "bufferView": 2,
      "byteOffset": 14154912,
      "componentType": 5126,
      "count": 50484,
      "max": [
        68.00274658203125,
        8.565340042114258,
        -10.320551872253418
      ],
      "min": [
        28.96376609802246,
        -33.39805221557617,
        -40.20334243774414
      ],
      "type": "VEC3"
    },
    {
      "bufferView": 2,
      "byteOffset": 14760720,
      "componentType": 5126,
      "count": 50484,
      "max": [
        0.9999964833259583,
        0.9999812841415405,
        0.9999940991401672
      ],
      "min": [
        -0.9999949932098389,
        -0.9999999403953552,
        -0.9999939203262329
      ],
      "type": "VEC3"
    },
    {
      "bufferView": 1,
      "byteOffset": 4718304,
      "componentType": 5126,
      "count": 50484,
      "max": [
        0.9999600052833557,
        0.9994320273399353
      ],
      "min": [
        0.0005530000198632479,
        8.399999933317304e-05
      ],
      "type": "VEC2"
    },
    {
      "bufferView": 0,
      "byteOffset": 11173692,
      "componentType": 5125,
      "count": 206577,
      "type": "SCALAR"
    }
  ],
  "asset": {
    "extras": {
      "author": "Air Digital Photogrammetry (https://sketchfab.com/AirDigitalca)",
      "license": "CC-BY-4.0 (http://creativecommons.org/licenses/by/4.0/)",
      "source": "https://sketchfab.com/3d-models/eglise-catholique-saint-polycarpe-3c17b4155d7f40448f528cbbb5f14910",
      "title": "Église catholique Saint-Polycarpe"
    },
    "generator": "Sketchfab-16.33.0",
    "version": "2.0"
  },
  "bufferViews": [
    {
      "buffer": 0,
      "byteLength": 12000000,
      "name": "floatBufferViews",
      "target": 34963
    },
    {
      "buffer": 0,
      "byteLength": 5122176,
      "byteOffset": 12000000,
      "byteStride": 8,
      "name": "floatBufferViews",
      "target": 34962
    },
    {
      "buffer": 0,
      "byteLength": 15366528,
      "byteOffset": 17122176,
      "byteStride": 12,
      "name": "floatBufferViews",
      "target": 34962
    }
  ],
  "buffers": [
    {
      "byteLength": 32488704,
      "uri": "scene.bin"
    }
  ],
  "extensionsUsed": [
    "KHR_materials_unlit"
  ],
  "images": [
    {
      "uri": "textures/verte_baseColor.jpeg"
    }
  ],
  "materials": [
    {
      "doubleSided": true,
      "extensions": {
        "KHR_materials_unlit": {}
      },
      "name": "verte",
      "pbrMetallicRoughness": {
        "baseColorTexture": {
          "index": 0
        },
        "metallicFactor": 0.0
      }
    }
  ],
  "meshes": [
    {
      "name": "Object_0",
      "primitives": [
        {
          "attributes": {
            "NORMAL": 1,
            "POSITION": 0,
            "TEXCOORD_0": 2
          },
          "indices": 3,
          "material": 0,
          "mode": 4
        }
      ]
    },
    {
      "name": "Object_1",
      "primitives": [
        {
          "attributes": {
            "NORMAL": 5,
            "POSITION": 4,
            "TEXCOORD_0": 6
          },
          "indices": 7,
          "material": 0,
          "mode": 4
        }
      ]
    },
    {
      "name": "Object_2",
      "primitives": [
        {
          "attributes": {
            "NORMAL": 9,
            "POSITION": 8,
            "TEXCOORD_0": 10
          },
          "indices": 11,
          "material": 0,
          "mode": 4
        }
      ]
    },
    {
      "name": "Object_3",
      "primitives": [
        {
          "attributes": {
            "NORMAL": 13,
            "POSITION": 12,
            "TEXCOORD_0": 14
          },
          "indices": 15,
          "material": 0,
          "mode": 4
        }
      ]
    },
    {
      "name": "Object_4",
      "primitives": [
        {
          "attributes": {
            "NORMAL": 17,
            "POSITION": 16,
            "TEXCOORD_0": 18
          },
          "indices": 19,
          "material": 0,
          "mode": 4
        }
      ]
    },
    {
      "name": "Object_5",
      "primitives": [
        {
          "attributes": {
            "NORMAL": 21,
            "POSITION": 20,
            "TEXCOORD_0": 22
          },
          "indices": 23,
          "material": 0,
          "mode": 4
        }
      ]
    },
    {
      "name": "Object_6",
      "primitives": [
        {
          "attributes": {
            "NORMAL": 25,
            "POSITION": 24,
            "TEXCOORD_0": 26
          },
          "indices": 27,
          "material": 0,
          "mode": 4
        }
      ]
    },
    {
      "name": "Object_7",
      "primitives": [
        {
          "attributes": {
            "NORMAL": 29,
            "POSITION": 28,
            "TEXCOORD_0": 30
          },
          "indices": 31,
          "material": 0,
          "mode": 4
        }
      ]
    },
    {
      "name": "Object_8",
      "primitives": [
        {
          "attributes": {
            "NORMAL": 33,
            "POSITION": 32,
            "TEXCOORD_0": 34
          },
          "indices": 35,
          "material": 0,
          "mode": 4
        }
      ]
    },
    {
      "name": "Object_9",
      "primitives": [
        {
          "attributes": {
            "NORMAL": 37,
            "POSITION": 36,
            "TEXCOORD_0": 38
          },
          "indices": 39,
          "material": 0,
          "mode": 4
        }
      ]
    }
  ],
  "nodes": [
    {
      "children": [
        1
      ],
      "matrix": [
        0.9649029970169067,
        -5.831037674625158e-17,
        0.26260659098625183,
        0.0,
        -0.0013035038718953729,
        -0.9999876618385315,
        0.004789501894265191,
        0.0,
        0.26260337233543396,
        -0.004963713232427621,
        -0.9648910760879517,
        0.0,
        0.0,
        0.0,
        0.0,
        1.0
      ],
      "name": "Sketchfab_model"
    },
    {
      "children": [
        2,
        3,
        4,
        5,
        6,
        7,
        8,
        9,
        10,
        11
      ],
      "name": "verte.obj.cleaner.materialmerger.gles"
    },
    {
      "mesh": 0,
      "name": "Object_2"
    },
    {
      "mesh": 1,
      "name": "Object_3"
    },
    {
      "mesh": 2,
      "name": "Object_4"
    },
    {
      "mesh": 3,
      "name": "Object_5"
    },
    {
      "mesh": 4,
      "name": "Object_6"
    },
    {
      "mesh": 5,
      "name": "Object_7"
    },
    {
      "mesh": 6,
      "name": "Object_8"
    },
    {
      "mesh": 7,
      "name": "Object_9"
    },
    {
      "mesh": 8,
      "name": "Object_10"
    },
    {
      "mesh": 9,
      "name": "Object_11"
    }
  ],
  "samplers": [
    {
      "magFilter": 9729,
      "minFilter": 9987,
      "wrapS": 10497,
      "wrapT": 10497
    }
  ],
  "scene": 0,
  "scenes": [
    {
      "name": "Sketchfab_Scene",
      "nodes": [
        0
      ]
    }
  ],
  "textures": [
    {
      "sampler": 0,
      "source": 0
    }
  ]
}
