{
  "accessors": [
    {
      "bufferView": 2,
      "componentType": 5126,
      "count": 65532,
      "max": [
        28.800024032592773,
        -40.432708740234375,
        240.54891967773438
      ],
      "min": [
        -186.81549072265625,
        -61.642974853515625,
        43.990291595458984
      ],
      "type": "VEC3"
    },
    {
      "bufferView": 2,
      "byteOffset": 786384,
      "componentType": 5126,
      "count": 65532,
      "max": [
        0.9999996423721313,
        0.9992719888687134,
        0.9999668002128601
      ],
      "min": [
        -0.9999957084655762,
        -1.0,
        -0.9999507069587708
      ],
      "type": "VEC3"
    },
    {
      "bufferView": 1,
      "componentType": 5126,
      "count": 65532,
      "max": [
        0.9973000288009644,
        0.9998980164527893
      ],
      "min": [
        4.8000001697801054e-05,
        0.00017699999443721026
      ],
      "type": "VEC2"
    },
    {
      "bufferView": 0,
      "componentType": 5125,
      "count": 315117,
      "type": "SCALAR"
    },
    {
      "bufferView": 2,
      "byteOffset": 1572768,
      "componentType": 5126,
      "count": 65532,
      "max": [
        39.73390579223633,
        -40.432708740234375,
        142.7317657470703
      ],
      "min": [
        -169.32403564453125,
        -61.89928436279297,
        -121.3453598022461
      ],
      "type": "VEC3"
    },
    {
      "bufferView": 2,
      "byteOffset": 2359152,
      "componentType": 5126,
      "count": 65532,
      "max": [
        0.9999565482139587,
        0.9993245601654053,
        0.9999852180480957
      ],
      "min": [
        -0.9998578429222107,
        -0.9999998807907104,
        -0.9999791979789734
      ],
      "type": "VEC3"
    },
    {
      "bufferView": 1,
      "byteOffset": 524256,
      "componentType": 5126,
      "count": 65532,
      "max": [
        0.999705970287323,
        0.9998300075531006
      ],
      "min": [
        0.0,
        0.0
      ],
      "type": "VEC2"
    },
    {
      "bufferView": 0,
      "byteOffset": 1260468,
      "componentType": 5125,
      "count": 307425,
      "type": "SCALAR"
    },
    {
      "bufferView": 2,
      "byteOffset": 3145536,
      "componentType": 5126,
      "count": 65532,
      "max": [
        -20.44964027404785,
        -43.38716125488281,
        225.868408203125
      ],
      "min": [
        -345.7001037597656,
        -59.76374053955078,
        -115.22240447998047
      ],
      "type": "VEC3"
    },
    {
      "bufferView": 2,
      "byteOffset": 3931920,
      "componentType": 5126,
      "count": 65532,
      "max": [
        0.9999822378158569,
        0.9992024898529053,
        0.9999966621398926
      ],
      "min": [
        -0.9999710917472839,
        -0.9999998211860657,
        -0.999996542930603
      ],
      "type": "VEC3"
    },
    {
      "bufferView": 1,
      "byteOffset": 1048512,
      "componentType": 5126,
      "count": 65532,
      "max": [
        0.9985030293464661,
        0.9997029900550842
      ],
      "min": [
        6.500000017695129e-05,
        0.0
      ],
      "type": "VEC2"
    },
    {
      "bufferView": 0,
      "byteOffset": 2490168,
      "componentType": 5125,
      "count": 315618,
      "type": "SCALAR"
    },
    {
      "bufferView": 2,
      "byteOffset": 4718304,
      "componentType": 5126,
      "count": 65532,
      "max": [
        -92.09329223632813,
        -45.14822769165039,
        233.5009002685547
      ],
      "min": [
        -335.5756530761719,
        -62.55744934082031,
        -136.89862060546875
      ],
      "type": "VEC3"
    },
    {
      "bufferView": 2,
      "byteOffset": 5504688,
      "componentType": 5126,
      "count": 65532,
      "max": [
        0.9999624490737915,
        0.999518632888794,
        0.9999960064888
      ],
      "min": [
        -0.9999799728393555,
        -0.9999998211860657,
        -0.9999797940254211
      ],
      "type": "VEC3"
    },
    {
      "bufferView": 1,
      "byteOffset": 1572768,
      "componentType": 5126,
      "count": 65532,
      "max": [
        0.99897301197052,
        0.9999420046806335
      ],
      "min": [
        0.0,
        0.0
      ],
      "type": "VEC2"
    },
    {
      "bufferView": 0,
      "byteOffset": 3752640,
      "componentType": 5125,
      "count": 302736,
      "type": "SCALAR"
    },
    {
      "bufferView": 2,
      "byteOffset": 6291072,
      "componentType": 5126,
      "count": 65532,
      "max": [
        32.26445388793945,
        -41.55980682373047,
        243.28724670410156
      ],
      "min": [
        -288.32550048828125,
        -61.16820526123047,
        130.02487182617188
      ],
      "type": "VEC3"
    },
    {
      "bufferView": 2,
      "byteOffset": 7077456,
      "componentType": 5126,
      "count": 65532,
      "max": [
        0.9999995827674866,
        0.9995719790458679,
        0.9999715685844421
      ],
      "min": [
        -0.9999328255653381,
        -0.9999998211860657,
        -0.9999716877937317
      ],
      "type": "VEC3"
    },
    {
      "bufferView": 1,
      "byteOffset": 2097024,
      "componentType": 5126,
      "count": 65532,
      "max": [
        0.999845027923584,
        1.0
      ],
      "min": [
        0.0,
        1.8000000636675395e-05
      ],
      "type": "VEC2"
    },
    {
      "bufferView": 0,
      "byteOffset": 4963584,
      "componentType": 5125,
      "count": 284364,
      "type": "SCALAR"
    },
    {
      "bufferView": 2,
      "byteOffset": 7863840,
      "componentType": 5126,
      "count": 65532,
      "max": [
        -163.85012817382813,
        -45.707942962646484,
        223.2770538330078
      ],
      "min": [
        -348.0434265136719,
        -59.602882385253906,
        71.26587677001953
      ],
      "type": "VEC3"
    },
    {
      "bufferView": 2,
      "byteOffset": 8650224,
      "componentType": 5126,
      "count": 65532,
      "max": [
        0.9999982118606567,
        0.999672532081604,
        0.9999731779098511
      ],
      "min": [
        -0.9999526143074036,
        -0.9999999403953552,
        -0.9999666213989258
      ],
      "type": "VEC3"
    },
    {
      "bufferView": 1,
      "byteOffset": 2621280,
      "componentType": 5126,
      "count": 65532,
      "max": [
        0.9989429712295532,
        0.9999390244483948
      ],
      "min": [
        9.500000305706635e-05,
        0.0
      ],
      "type": "VEC2"
    },
    {
      "bufferView": 0,
      "byteOffset": 6101040,
      "componentType": 5125,
      "count": 273102,
      "type": "SCALAR"
    },
    {
      "bufferView": 2,
      "byteOffset": 9436608,
      "componentType": 5126,
      "count": 65532,
      "max": [
        -154.7445831298828,
        -43.970863342285156,
        135.14942932128906
      ],
      "min": [
        -340.4847412109375,
        -62.087684631347656,
        -18.262298583984375
      ],
      "type": "VEC3"
    },
    {
      "bufferView": 2,
      "byteOffset": 10222992,
      "componentType": 5126,
      "count": 65532,
      "max": [
        0.9999333024024963,
        0.9999651312828064,
        0.9999606013298035
      ],
      "min": [
        -0.9999664425849915,
        -1.0,
        -0.9999967217445374
      ],
      "type": "VEC3"
    },
    {
      "bufferView": 1,
      "byteOffset": 3145536,
      "componentType": 5126,
      "count": 65532,
      "max": [
        1.0,
        1.0
      ],
      "min": [
        0.0,
        0.0
      ],
      "type": "VEC2"
    },
    {
      "bufferView": 0,
      "byteOffset": 7193448,
      "componentType": 5125,
      "count": 263991,
      "type": "SCALAR"
    },
    {
      "bufferView": 2,
      "byteOffset": 11009376,
      "componentType": 5126,
      "count": 65532,
      "max": [
        -192.5027618408203,
        -47.83089065551758,
        -0.527571976184845
      ],
      "min": [
        -335.2694091796875,
        -64.85093688964844,
        -138.38339233398438
      ],
      "type": "VEC3"
    },
    {
      "bufferView": 2,
      "byteOffset": 11795760,
      "componentType": 5126,
      "count": 65532,
      "max": [
        0.9999732375144958,
        0.9999008178710938,
        0.9999978542327881
      ],
      "min": [
        -0.9999363422393799,
        -0.9999997615814209,
        -0.9999666213989258
      ],
      "type": "VEC3"
    },
    {
      "bufferView": 1,
      "byteOffset": 3669792,
      "componentType": 5126,
      "count": 65532,
      "max": [
        0.9999520182609558,
        1.0
      ],
      "min": [
        0.0,
        0.0
      ],
      "type": "VEC2"
    },
    {
      "bufferView": 0,
      "byteOffset": 8249412,
      "componentType": 5125,
      "count": 267327,
      "type": "SCALAR"
    },
    {
      "bufferView": 2,
      "byteOffset": 12582144,
      "componentType": 5126,
      "count": 65532,
      "max": [
        -142.28709411621094,
        -45.17732620239258,
        45.86729049682617
      ],
      "min": [
        -338.43170166015625,
        -63.53279113769531,
        -138.43287658691406
      ],
      "type": "VEC3"
    },
    {
      "bufferView": 2,
      "byteOffset": 13368528,
      "componentType": 5126,
      "count": 65532,
      "max": [
        0.9999855756759644,
        0.9999762177467346,
        0.999976634979248
      ],
      "min": [
        -0.999968945980072,
        -0.9999996423721313,
        -0.9999788999557495
      ],
      "type": "VEC3"
    },
    {
      "bufferView": 1,
      "byteOffset": 4194048,
      "componentType": 5126,
      "count": 65532,
      "max": [
        0.9995959997177124,
        1.0
      ],
      "min": [
        0.0,
        6.800000119255856e-05
      ],
      "type": "VEC2"
    },
    {
      "bufferView": 0,
      "byteOffset": 9318720,
      "componentType": 5125,
      "count": 269184,
      "type": "SCALAR"
    },
    {
      "bufferView": 2,
      "byteOffset": 14154912,
      "componentType": 5126,
      "count": 65532,
      "max": [
        51.79957962036133,
        -42.48339080810547,
        213.81993103027344
      ],
      "min": [
        -352.3934020996094,
        -61.611732482910156,
        -122.01351928710938
      ],
      "type": "VEC3"
    },
    {
      "bufferView": 2,
      "byteOffset": 14941296,
      "componentType": 5126,
      "count": 65532,
      "max": [
        0.9999908804893494,
        0.9999087452888489,
        0.9999392628669739
      ],
      "min": [
        -0.9999743103981018,
        -0.9999997615814209,
        -0.9999434351921082
      ],
      "type": "VEC3"
    },
    {
      "bufferView": 1,
      "byteOffset": 4718304,
      "componentType": 5126,
      "count": 65532,
      "max": [
        0.9999759793281555,
        1.0
      ],
      "min": [
        3.199999991920777e-05,
        0.0
      ],
      "type": "VEC2"
    },
    {
      "bufferView": 0,
      "byteOffset": 10395456,
      "componentType": 5125,
      "count": 275598,
      "type": "SCALAR"
    },
    {
      "bufferView": 2,
      "byteOffset": 15727680,
      "componentType": 5126,
      "count": 65532,
      "max": [
        45.99196243286133,
        -42.05251693725586,
        67.37389373779297
      ],
      "min": [
        -156.8382110595703,
        -61.89928436279297,
        -103.50347900390625
      ],
      "type": "VEC3"
    },
    {
      "bufferView": 2,
      "byteOffset": 16514064,
      "componentType": 5126,
      "count": 65532,
      "max": [
        0.9999907612800598,
        0.9999127388000488,
        0.9999762177467346
      ],
      "min": [
        -0.999971866607666,
        -0.9999999403953552,
        -0.9999942779541016
      ],
      "type": "VEC3"
    },
    {
      "bufferView": 1,
      "byteOffset": 5242560,
      "componentType": 5126,
      "count": 65532,
      "max": [
        0.9995579719543457,
        1.0
      ],
      "min": [
        0.00014600000577047467,
        0.0
      ],
      "type": "VEC2"
    },
    {
      "bufferView": 0,
      "byteOffset": 11497848,
      "componentType": 5125,
      "count": 280950,
      "type": "SCALAR"
    },
    {
      "bufferView": 2,
      "byteOffset": 17300448,
      "componentType": 5126,
      "count": 65532,
      "max": [
        -18.131010055541992,
        -43.332069396972656,
        84.11671447753906
      ],
      "min": [
        -155.1678009033203,
        -67.94486999511719,
        -59.23912048339844
      ],
      "type": "VEC3"
    },
    {
      "bufferView": 2,
      "byteOffset": 18086832,
      "componentType": 5126,
      "count": 65532,
      "max": [
        0.999998152256012,
        0.9999666213989258,
        0.9999412894248962
      ],
      "min": [
        -0.999998152256012,
        -0.9999994039535522,
        -0.9999886155128479
      ],
      "type": "VEC3"
    },
    {
      "bufferView": 1,
      "byteOffset": 5766816,
      "componentType": 5126,
      "count": 65532,
      "max": [
        1.0,
        1.0
      ],
      "min": [
        4.999999873689376e-05,
        0.0
      ],
      "type": "VEC2"
    },
    {
      "bufferView": 0,
      "byteOffset": 12621648,
      "componentType": 5125,
      "count": 264606,
      "type": "SCALAR"
    },
    {
      "bufferView": 2,
      "byteOffset": 18873216,
      "componentType": 5126,
      "count": 65532,
      "max": [
        38.45160675048828,
        -40.522613525390625,
        195.3262176513672
      ],
      "min": [
        -164.52365112304688,
        -61.46866226196289,
        55.653411865234375
      ],
      "type": "VEC3"
    },
    {
      "bufferView": 2,
      "byteOffset": 19659600,
      "componentType": 5126,
      "count": 65532,
      "max": [
        0.9999911785125732,
        0.9986093044281006,
        0.9999637007713318
      ],
      "min": [
        -0.9999957084655762,
        -0.9999999403953552,
        -0.9999997019767761
      ],
      "type": "VEC3"
    },
    {
      "bufferView": 1,
      "byteOffset": 6291072,
      "componentType": 5126,
      "count": 65532,
      "max": [
        0.999422013759613,
        1.0
      ],
      "min": [
        6.199999916134402e-05,
        0.0
      ],
      "type": "VEC2"
    },
    {
      "bufferView": 0,
      "byteOffset": 13680072,
      "componentType": 5125,
      "count": 269241,
      "type": "SCALAR"
    },
    {
      "bufferView": 2,
      "byteOffset": 20445984,
      "componentType": 5126,
      "count": 15846,
      "max": [
        31.65315818786621,
        -41.553653717041016,
        243.13119506835938
      ],
      "min": [
        -69.11894226074219,
        -56.288047790527344,
        136.1125946044922
      ],
      "type": "VEC3"
    },
    {
      "bufferView": 2,
      "byteOffset": 20636136,
      "componentType": 5126,
      "count": 15846,
      "max": [
        0.9999904036521912,
        0.9998053908348083,
        0.9985548257827759
      ],
      "min": [
        -0.9999908804893494,
        -0.9999991059303284,
        -0.9999735355377197
      ],
      "type": "VEC3"
    },
    {
      "bufferView": 1,
      "byteOffset": 6815328,
      "componentType": 5126,
      "count": 15846,
      "max": [
        0.9995290040969849,
        1.0
      ],
      "min": [
        3.300000025774352e-05,
        3.7999998312443495e-05
      ],
      "type": "VEC2"
    },
    {
      "bufferView": 0,
      "byteOffset": 14757036,
      "componentType": 5125,
      "count": 65517,
      "type": "SCALAR"
    },
    {
      "bufferView": 2,
      "byteOffset": 20826288,
      "componentType": 5126,
      "count": 65532,
      "max": [
        33.26768112182617,
        -40.94050216674805,
        240.3907470703125
      ],
      "min": [
        -182.1768035888672,
        -59.4493408203125,
        48.56939697265625
      ],
      "type": "VEC3"
    },
    {
      "bufferView": 2,
      "byteOffset": 21612672,
      "componentType": 5126,
      "count": 65532,
      "max": [
        0.9999716877937317,
        0.9995046854019165,
        0.9999731779098511
      ],
      "min": [
        -0.9999216794967651,
        -1.0,
        -0.9999857544898987
      ],
      "type": "VEC3"
    },
    {
      "bufferView": 1,
      "byteOffset": 6942096,
      "componentType": 5126,
      "count": 65532,
      "max": [
        0.9993820190429688,
        0.9983440041542053
      ],
      "min": [
        0.001154000055976212,
        0.0006019999855197966
      ],
      "type": "VEC2"
    },
    {
      "bufferView": 0,
      "byteOffset": 15019104,
      "componentType": 5125,
      "count": 311337,
      "type": "SCALAR"
    },
    {
      "bufferView": 2,
      "byteOffset": 22399056,
      "componentType": 5126,
      "count": 65532,
      "max": [
        47.22419357299805,
        -41.649288177490234,
        142.1144561767578
      ],
      "min": [
        -163.1310272216797,
        -60.25822830200195,
        -124.68616485595703
      ],
      "type": "VEC3"
    },
    {
      "bufferView": 2,
      "byteOffset": 23185440,
      "componentType": 5126,
      "count": 65532,
      "max": [
        0.9999094605445862,
        0.9997318983078003,
        0.9999757409095764
      ],
      "min": [
        -0.9999740123748779,
        -1.0,
        -0.9999655485153198
      ],
      "type": "VEC3"
    },
    {
      "bufferView": 1,
      "byteOffset": 7466352,
      "componentType": 5126,
      "count": 65532,
      "max": [
        0.9996169805526733,
        0.9977480173110962
      ],
      "min": [
        0.0,
        0.0007910000276751816
      ],
      "type": "VEC2"
    },
    {
      "bufferView": 0,
      "byteOffset": 16264452,
      "componentType": 5125,
      "count": 308199,
      "type": "SCALAR"
    },
    {
      "bufferView": 2,
      "byteOffset": 23971824,
      "componentType": 5126,
      "count": 65532,
      "max": [
        49.105106353759766,
        -43.64155960083008,
        227.033203125
      ],
      "min": [
        -349.1649169921875,
        -59.46723937988281,
        -120.07089233398438
      ],
      "type": "VEC3"
    },
    {
      "bufferView": 2,
      "byteOffset": 24758208,
      "componentType": 5126,
      "count": 65532,
      "max": [
        0.9999763369560242,
        0.9999774694442749,
        0.9999934434890747
      ],
      "min": [
        -0.9998931288719177,
        -0.9999999403953552,
        -0.9999811053276062
      ],
      "type": "VEC3"
    },
    {
      "bufferView": 1,
      "byteOffset": 7990608,
      "componentType": 5126,
      "count": 65532,
      "max": [
        0.9986630082130432,
        0.9999989867210388
      ],
      "min": [
        0.0005339999916031957,
        7.000000096013537e-06
      ],
      "type": "VEC2"
    },
    {
      "bufferView": 0,
      "byteOffset": 17497248,
      "componentType": 5125,
      "count": 315606,
      "type": "SCALAR"
    },
    {
      "bufferView": 2,
      "byteOffset": 25544592,
      "componentType": 5126,
      "count": 65532,
      "max": [
        -90.90336608886719,
        -44.745792388916016,
        233.73866271972656
      ],
      "min": [
        -333.7598876953125,
        -62.740516662597656,
        -130.1624298095703
      ],
      "type": "VEC3"
    },
    {
      "bufferView": 2,
      "byteOffset": 26330976,
      "componentType": 5126,
      "count": 65532,
      "max": [
        0.99998539686203,
        0.9999345541000366,
        0.9999437928199768
      ],
      "min": [
        -0.9999962449073792,
        -1.0,
        -0.9999735355377197
      ],
      "type": "VEC3"
    },
    {
      "bufferView": 1,
      "byteOffset": 8514864,
      "componentType": 5126,
      "count": 65532,
      "max": [
        0.9989359974861145,
        0.9995020031929016
      ],
      "min": [
        5.700000110664405e-05,
        0.0
      ],
      "type": "VEC2"
    },
    {
      "bufferView": 0,
      "byteOffset": 18759672,
      "componentType": 5125,
      "count": 301200,
      "type": "SCALAR"
    },
    {
      "bufferView": 2,
      "byteOffset": 27117360,
      "componentType": 5126,
      "count": 65532,
      "max": [
        -11.299930572509766,
        -42.88787078857422,
        240.39556884765625
      ],
      "min": [
        -324.29510498046875,
        -61.15089797973633,
        126.37486267089844
      ],
      "type": "VEC3"
    },
    {
      "bufferView": 2,
      "byteOffset": 27903744,
      "componentType": 5126,
      "count": 65532,
      "max": [
        0.9999920129776001,
        0.9999665021896362,
        0.9999064207077026
      ],
      "min": [
        -0.999981701374054,
        -0.9999999403953552,
        -0.9999986290931702
      ],
      "type": "VEC3"
    },
    {
      "bufferView": 1,
      "byteOffset": 9039120,
      "componentType": 5126,
      "count": 65532,
      "max": [
        0.9994900226593018,
        0.9994580149650574
      ],
      "min": [
        0.00016199999663513154,
        0.0
      ],
      "type": "VEC2"
    },
    {
      "bufferView": 0,
      "byteOffset": 19964472,
      "componentType": 5125,
      "count": 284373,
      "type": "SCALAR"
    },
    {
      "bufferView": 2,
      "byteOffset": 28690128,
      "componentType": 5126,
      "count": 65532,
      "max": [
        -164.95664978027344,
        -45.731468200683594,
        226.60885620117188
      ],
      "min": [
        -348.6626892089844,
        -60.62025833129883,
        57.48250961303711
      ],
      "type": "VEC3"
    },
    {
      "bufferView": 2,
      "byteOffset": 29476512,
      "componentType": 5126,
      "count": 65532,
      "max": [
        0.9999881386756897,
        0.9997153878211975,
        0.9999901652336121
      ],
      "min": [
        -0.9999864101409912,
        -0.9999996423721313,
        -0.9999926090240479
      ],
      "type": "VEC3"
    },
    {
      "bufferView": 1,
      "byteOffset": 9563376,
      "componentType": 5126,
      "count": 65532,
      "max": [
        0.9996470212936401,
        0.9994339942932129
      ],
      "min": [
        0.0002119999990100041,
        0.0
      ],
      "type": "VEC2"
    },
    {
      "bufferView": 0,
      "byteOffset": 21101964,
      "componentType": 5125,
      "count": 279582,
      "type": "SCALAR"
    },
    {
      "bufferView": 2,
      "byteOffset": 30262896,
      "componentType": 5126,
      "count": 65532,
      "max": [
        -159.38299560546875,
        -44.71708679199219,
        135.30418395996094
      ],
      "min": [
        -341.78009033203125,
        -62.699161529541016,
        -54.865108489990234
      ],
      "type": "VEC3"
    },
    {
      "bufferView": 2,
      "byteOffset": 31049280,
      "componentType": 5126,
      "count": 65532,
      "max": [
        0.999949038028717,
        0.9999560713768005,
        0.9999754428863525
      ],
      "min": [
        -0.9999933242797852,
        -0.9999997019767761,
        -0.9999920725822449
      ],
      "type": "VEC3"
    },
    {
      "bufferView": 1,
      "byteOffset": 10087632,
      "componentType": 5126,
      "count": 65532,
      "max": [
        0.9996749758720398,
        1.0
      ],
      "min": [
        0.0,
        0.0
      ],
      "type": "VEC2"
    },
    {
      "bufferView": 0,
      "byteOffset": 22220292,
      "componentType": 5125,
      "count": 267600,
      "type": "SCALAR"
    },
    {
      "bufferView": 2,
      "byteOffset": 31835664,
      "componentType": 5126,
      "count": 65532,
      "max": [
        -186.42066955566406,
        -47.91048049926758,
        45.87192916870117
      ],
      "min": [
        -337.2757873535156,
        -65.29438781738281,
        -139.3114013671875
      ],
      "type": "VEC3"
    },
    {
      "bufferView": 2,
      "byteOffset": 32622048,
      "componentType": 5126,
      "count": 65532,
      "max": [
        0.9999909996986389,
        0.9998404383659363,
        0.9999990463256836
      ],
      "min": [
        -0.9999927282333374,
        -0.9999995827674866,
        -0.9999924302101135
      ],
      "type": "VEC3"
    },
    {
      "bufferView": 1,
      "byteOffset": 10611888,
      "componentType": 5126,
      "count": 65532,
      "max": [
        0.999629020690918,
        0.9999909996986389
      ],
      "min": [
        0.0,
        0.0
      ],
      "type": "VEC2"
    },
    {
      "bufferView": 0,
      "byteOffset": 23290692,
      "componentType": 5125,
      "count": 262512,
      "type": "SCALAR"
    },
    {
      "bufferView": 2,
      "byteOffset": 33408432,
      "componentType": 5126,
      "count": 65533,
      "max": [
        -147.14202880859375,
        0.12009800225496292,
        219.81088256835938
      ],
      "min": [
        -349.433837890625,
        -61.10970687866211,
        -125.93585968017578
      ],
      "type": "VEC3"
    },
    {
      "bufferView": 2,
      "byteOffset": 34194828,
      "componentType": 5126,
      "count": 65533,
      "max": [
        0.9999953508377075,
        0.9997338652610779,
        0.9999954104423523
      ],
      "min": [
        -0.9999773502349854,
        -0.9999996423721313,
        -0.9999735355377197
      ],
      "type": "VEC3"
    },
    {
      "bufferView": 1,
      "byteOffset": 11136144,
      "componentType": 5126,
      "count": 65533,
      "max": [
        0.9995059967041016,
        0.9995179772377014
      ],
      "min": [
        0.00014699999883305281,
        0.0
      ],
      "type": "VEC2"
    },
    {
      "bufferView": 0,
      "byteOffset": 24340740,
      "componentType": 5125,
      "count": 276357,
      "type": "SCALAR"
    },
    {
      "bufferView": 2,
      "byteOffset": 34981224,
      "componentType": 5126,
      "count": 65532,
      "max": [
        52.98769760131836,
        -42.453182220458984,
        214.45278930664063
      ],
      "min": [
        -352.1466064453125,
        -61.512733459472656,
        -120.0213851928711
      ],
      "type": "VEC3"
    },
    {
      "bufferView": 2,
      "byteOffset": 35767608,
      "componentType": 5126,
      "count": 65532,
      "max": [
        0.9999944567680359,
        0.9998909831047058,
        0.9999858140945435
      ],
      "min": [
        -0.9999803304672241,
        -0.9999998211860657,
        -0.9999927878379822
      ],
      "type": "VEC3"
    },
    {
      "bufferView": 1,
      "byteOffset": 11660408,
      "componentType": 5126,
      "count": 65532,
      "max": [
        0.9994829893112183,
        0.9999859929084778
      ],
      "min": [
        0.0,
        0.0
      ],
      "type": "VEC2"
    },
    {
      "bufferView": 0,
      "byteOffset": 25446168,
      "componentType": 5125,
      "count": 271938,
      "type": "SCALAR"
    },
    {
      "bufferView": 2,
      "byteOffset": 36553992,
      "componentType": 5126,
      "count": 65532,
      "max": [
        44.540409088134766,
        -42.14507293701172,
        67.4000473022461
      ],
      "min": [
        -155.42401123046875,
        -67.94486999511719,
        -100.0877685546875
      ],
      "type": "VEC3"
    },
    {
      "bufferView": 2,
      "byteOffset": 37340376,
      "componentType": 5126,
      "count": 65532,
      "max": [
        0.9999274015426636,
        0.9996404051780701,
        0.9999978542327881
      ],
      "min": [
        -0.9999948740005493,
        -1.0,
        -0.9999985098838806
      ],
      "type": "VEC3"
    },
    {
      "bufferView": 1,
      "byteOffset": 12184664,
      "componentType": 5126,
      "count": 65532,
      "max": [
        0.9996830224990845,
        0.9994450211524963
      ],
      "min": [
        0.0,
        0.0
      ],
      "type": "VEC2"
    },
    {
      "bufferView": 0,
      "byteOffset": 26533920,
      "componentType": 5125,
      "count": 275412,
      "type": "SCALAR"
    },
    {
      "bufferView": 2,
      "byteOffset": 38126760,
      "componentType": 5126,
      "count": 65532,
      "max": [
        38.38345718383789,
        -40.432708740234375,
        138.6675262451172
      ],
      "min": [
        -155.1678009033203,
        -63.631370544433594,
        -35.120243072509766
      ],
      "type": "VEC3"
    },
    {
      "bufferView": 2,
      "byteOffset": 38913144,
      "componentType": 5126,
      "count": 65532,
      "max": [
        0.9999988675117493,
        0.9999792575836182,
        0.9999517202377319
      ],
      "min": [
        -0.9999813437461853,
        -0.9999987483024597,
        -0.9999832510948181
      ],
      "type": "VEC3"
    },
    {
      "bufferView": 1,
      "byteOffset": 12708920,
      "componentType": 5126,
      "count": 65532,
      "max": [
        0.9992790222167969,
        0.999189019203186
      ],
      "min": [
        0.0,
        9.7999996796716e-05
      ],
      "type": "VEC2"
    },
    {
      "bufferView": 0,
      "byteOffset": 27635568,
      "componentType": 5125,
      "count": 270693,
      "type": "SCALAR"
    },
    {
      "bufferView": 2,
      "byteOffset": 39699528,
      "componentType": 5126,
      "count": 65532,
      "max": [
        36.78104782104492,
        -40.5383415222168,
        241.30340576171875
      ],
      "min": [
        -166.28353881835938,
        -58.97073745727539,
        55.41395568847656
      ],
      "type": "VEC3"
    },
    {
      "bufferView": 2,
      "byteOffset": 40485912,
      "componentType": 5126,
      "count": 65532,
      "max": [
        0.9999945163726807,
        0.9999995827674866,
        0.9999217987060547
      ],
      "min": [
        -0.9999901652336121,
        -0.9999998807907104,
        -0.9999629259109497
      ],
      "type": "VEC3"
    },
    {
      "bufferView": 1,
      "byteOffset": 13233176,
      "componentType": 5126,
      "count": 65532,
      "max": [
        0.9995409846305847,
        0.9999610185623169
      ],
      "min": [
        0.0004239999980200082,
        0.0
      ],
      "type": "VEC2"
    },
    {
      "bufferView": 0,
      "byteOffset": 28718340,
      "componentType": 5125,
      "count": 274956,
      "type": "SCALAR"
    },
    {
      "bufferView": 2,
      "byteOffset": 41272296,
      "componentType": 5126,
      "count": 10508,
      "max": [
        31.840877532958984,
        -41.55980682373047,
        239.8864288330078
      ],
      "min": [
        -88.70598602294922,
        -57.313255310058594,
        135.28961181640625
      ],
      "type": "VEC3"
    },
    {
      "bufferView": 2,
      "byteOffset": 41398392,
      "componentType": 5126,
      "count": 10508,
      "max": [
        0.9997656345367432,
        0.9940693974494934,
        0.9986363053321838
      ],
      "min": [
        -0.9999291896820068,
        -0.9999974370002747,
        -0.999998152256012
      ],
      "type": "VEC3"
    },
    {
      "bufferView": 1,
      "byteOffset": 13757432,
      "componentType": 5126,
      "count": 10508,
      "max": [
        0.9992920160293579,
        0.997717022895813
      ],
      "min": [
        0.0003589999978430569,
        0.003019999945536256
      ],
      "type": "VEC2"
    },
    {
      "bufferView": 0,
      "byteOffset": 29818164,
      "componentType": 5125,
      "count": 45459,
      "type": "SCALAR"
    }
  ],
  "asset": {
    "extras": {
      "author": "Air Digital Photogrammetry (https://sketchfab.com/AirDigitalca)",
      "license": "CC-BY-4.0 (http://creativecommons.org/licenses/by/4.0/)",
      "source": "https://sketchfab.com/3d-models/residential-neighborhood-test-photogrammetry-e1dd2a8171df4f79b678e88180dce863",
      "title": "Residential Neighborhood Test Photogrammetry"
    },
    "generator": "Sketchfab-16.31.0",
    "version": "2.0"
  },
  "bufferViews": [
    {
      "buffer": 0,
      "byteLength": 30000000,
      "name": "floatBufferViews",
      "target": 34963
    },
    {
      "buffer": 0,
      "byteLength": 13841496,
      "byteOffset": 30000000,
      "byteStride": 8,
      "name": "floatBufferViews",
      "target": 34962
    },
    {
      "buffer": 0,
      "byteLength": 41524488,
      "byteOffset": 43841496,
      "byteStride": 12,
      "name": "floatBufferViews",
      "target": 34962
    }
  ],
  "buffers": [
    {
      "byteLength": 85365984,
      "uri": "scene.bin"
    }
  ],
  "extensionsUsed": [
    "KHR_materials_unlit"
  ],
  "images": [
    {
      "uri": "textures/material_baseColor.jpeg"
    },
    {
      "uri": "textures/res1_baseColor.jpeg"
    }
  ],
  "materials": [
    {
      "doubleSided": true,
      "extensions": {
        "KHR_materials_unlit": {}
      },
      "name": "material",
      "pbrMetallicRoughness": {
        "baseColorTexture": {
          "index": 0
        },
        "metallicFactor": 0.0
      }
    },
    {
      "doubleSided": true,
      "extensions": {
        "KHR_materials_unlit": {}
      },
      "name": "res1",
      "pbrMetallicRoughness": {
        "baseColorTexture": {
          "index": 1
        },
        "metallicFactor": 0.0
      }
    }
  ],
  "meshes": [
    {
      "name": "Object_0",
      "primitives": [
        {
          "attributes": {
            "NORMAL": 1,
            "POSITION": 0,
            "TEXCOORD_0": 2
          },
          "indices": 3,
          "material": 0,
          "mode": 4
        }
      ]
    },
    {
      "name": "Object_1",
      "primitives": [
        {
          "attributes": {
            "NORMAL": 5,
            "POSITION": 4,
            "TEXCOORD_0": 6
          },
          "indices": 7,
          "material": 0,
          "mode": 4
        }
      ]
    },
    {
      "name": "Object_2",
      "primitives": [
        {
          "attributes": {
            "NORMAL": 9,
            "POSITION": 8,
            "TEXCOORD_0": 10
          },
          "indices": 11,
          "material": 0,
          "mode": 4
        }
      ]
    },
    {
      "name": "Object_3",
      "primitives": [
        {
          "attributes": {
            "NORMAL": 13,
            "POSITION": 12,
            "TEXCOORD_0": 14
          },
          "indices": 15,
          "material": 0,
          "mode": 4
        }
      ]
    },
    {
      "name": "Object_4",
      "primitives": [
        {
          "attributes": {
            "NORMAL": 17,
            "POSITION": 16,
            "TEXCOORD_0": 18
          },
          "indices": 19,
          "material": 0,
          "mode": 4
        }
      ]
    },
    {
      "name": "Object_5",
      "primitives": [
        {
          "attributes": {
            "NORMAL": 21,
            "POSITION": 20,
            "TEXCOORD_0": 22
          },
          "indices": 23,
          "material": 0,
          "mode": 4
        }
      ]
    },
    {
      "name": "Object_6",
      "primitives": [
        {
          "attributes": {
            "NORMAL": 25,
            "POSITION": 24,
            "TEXCOORD_0": 26
          },
          "indices": 27,
          "material": 0,
          "mode": 4
        }
      ]
    },
    {
      "name": "Object_7",
      "primitives": [
        {
          "attributes": {
            "NORMAL": 29,
            "POSITION": 28,
            "TEXCOORD_0": 30
          },
          "indices": 31,
          "material": 0,
          "mode": 4
        }
      ]
    },
    {
      "name": "Object_8",
      "primitives": [
        {
          "attributes": {
            "NORMAL": 33,
            "POSITION": 32,
            "TEXCOORD_0": 34
          },
          "indices": 35,
          "material": 0,
          "mode": 4
        }
      ]
    },
    {
      "name": "Object_9",
      "primitives": [
        {
          "attributes": {
            "NORMAL": 37,
            "POSITION": 36,
            "TEXCOORD_0": 38
          },
          "indices": 39,
          "material": 0,
          "mode": 4
        }
      ]
    },
    {
      "name": "Object_10",
      "primitives": [
        {
          "attributes": {
            "NORMAL": 41,
            "POSITION": 40,
            "TEXCOORD_0": 42
          },
          "indices": 43,
          "material": 0,
          "mode": 4
        }
      ]
    },
    {
      "name": "Object_11",
      "primitives": [
        {
          "attributes": {
            "NORMAL": 45,
            "POSITION": 44,
            "TEXCOORD_0": 46
          },
          "indices": 47,
          "material": 0,
          "mode": 4
        }
      ]
    },
    {
      "name": "Object_12",
      "primitives": [
        {
          "attributes": {
            "NORMAL": 49,
            "POSITION": 48,
            "TEXCOORD_0": 50
          },
          "indices": 51,
          "material": 0,
          "mode": 4
        }
      ]
    },
    {
      "name": "Object_13",
      "primitives": [
        {
          "attributes": {
            "NORMAL": 53,
            "POSITION": 52,
            "TEXCOORD_0": 54
          },
          "indices": 55,
          "material": 0,
          "mode": 4
        }
      ]
    },
    {
      "name": "Object_14",
      "primitives": [
        {
          "attributes": {
            "NORMAL": 57,
            "POSITION": 56,
            "TEXCOORD_0": 58
          },
          "indices": 59,
          "material": 1,
          "mode": 4
        }
      ]
    },
    {
      "name": "Object_15",
      "primitives": [
        {
          "attributes": {
            "NORMAL": 61,
            "POSITION": 60,
            "TEXCOORD_0": 62
          },
          "indices": 63,
          "material": 1,
          "mode": 4
        }
      ]
    },
    {
      "name": "Object_16",
      "primitives": [
        {
          "attributes": {
            "NORMAL": 65,
            "POSITION": 64,
            "TEXCOORD_0": 66
          },
          "indices": 67,
          "material": 1,
          "mode": 4
        }
      ]
    },
    {
      "name": "Object_17",
      "primitives": [
        {
          "attributes": {
            "NORMAL": 69,
            "POSITION": 68,
            "TEXCOORD_0": 70
          },
          "indices": 71,
          "material": 1,
          "mode": 4
        }
      ]
    },
    {
      "name": "Object_18",
      "primitives": [
        {
          "attributes": {
            "NORMAL": 73,
            "POSITION": 72,
            "TEXCOORD_0": 74
          },
          "indices": 75,
          "material": 1,
          "mode": 4
        }
      ]
    },
    {
      "name": "Object_19",
      "primitives": [
        {
          "attributes": {
            "NORMAL": 77,
            "POSITION": 76,
            "TEXCOORD_0": 78
          },
          "indices": 79,
          "material": 1,
          "mode": 4
        }
      ]
    },
    {
      "name": "Object_20",
      "primitives": [
        {
          "attributes": {
            "NORMAL": 81,
            "POSITION": 80,
            "TEXCOORD_0": 82
          },
          "indices": 83,
          "material": 1,
          "mode": 4
        }
      ]
    },
    {
      "name": "Object_21",
      "primitives": [
        {
          "attributes": {
            "NORMAL": 85,
            "POSITION": 84,
            "TEXCOORD_0": 86
          },
          "indices": 87,
          "material": 1,
          "mode": 4
        }
      ]
    },
    {
      "name": "Object_22",
      "primitives": [
        {
          "attributes": {
            "NORMAL": 89,
            "POSITION": 88,
            "TEXCOORD_0": 90
          },
          "indices": 91,
          "material": 1,
          "mode": 4
        }
      ]
    },
    {
      "name": "Object_23",
      "primitives": [
        {
          "attributes": {
            "NORMAL": 93,
            "POSITION": 92,
            "TEXCOORD_0": 94
          },
          "indices": 95,
          "material": 1,
          "mode": 4
        }
      ]
    },
    {
      "name": "Object_24",
      "primitives": [
        {
          "attributes": {
            "NORMAL": 97,
            "POSITION": 96,
            "TEXCOORD_0": 98
          },
          "indices": 99,
          "material": 1,
          "mode": 4
        }
      ]
    },
    {
      "name": "Object_25",
      "primitives": [
        {
          "attributes": {
            "NORMAL": 101,
            "POSITION": 100,
            "TEXCOORD_0": 102
          },
          "indices": 103,
          "material": 1,
          "mode": 4
        }
      ]
    },
    {
      "name": "Object_26",
      "primitives": [
        {
          "attributes": {
            "NORMAL": 105,
            "POSITION": 104,
            "TEXCOORD_0": 106
          },
          "indices": 107,
          "material": 1,
          "mode": 4
        }
      ]
    },
    {
      "name": "Object_27",
      "primitives": [
        {
          "attributes": {
            "NORMAL": 109,
            "POSITION": 108,
            "TEXCOORD_0": 110
          },
          "indices": 111,
          "material": 1,
          "mode": 4
        }
      ]
    }
  ],
  "nodes": [
    {
      "children": [
        1
      ],
      "matrix": [
        0.993063747882843,
        0.018634781241416907,
        0.11609121412038803,
        0.0,
        0.022460514679551125,
        -0.999243974685669,
        -0.03173392638564132,
        0.0,
        0.11541208624839783,
        0.034121282398700936,
        -0.9927314519882202,
        0.0,
        0.0,
        0.0,
        0.0,
        1.0
      ],
      "name": "Sketchfab_model"
    },
    {
      "children": [
        2,
        3,
        4,
        5,
        6,
        7,
        8,
        9,
        10,
        11,
        12,
        13,
        14,
        15,
        16,
        17,
        18,
        19,
        20,
        21,
        22,
        23,
        24,
        25,
        26,
        27,
        28,
        29
      ],
      "name": "res.obj.cleaner.materialmerger.gles"
    },
    {
      "mesh": 0,
      "name": "Object_2"
    },
    {
      "mesh": 1,
      "name": "Object_3"
    },
    {
      "mesh": 2,
      "name": "Object_4"
    },
    {
      "mesh": 3,
      "name": "Object_5"
    },
    {
      "mesh": 4,
      "name": "Object_6"
    },
    {
      "mesh": 5,
      "name": "Object_7"
    },
    {
      "mesh": 6,
      "name": "Object_8"
    },
    {
      "mesh": 7,
      "name": "Object_9"
    },
    {
      "mesh": 8,
      "name": "Object_10"
    },
    {
      "mesh": 9,
      "name": "Object_11"
    },
    {
      "mesh": 10,
      "name": "Object_12"
    },
    {
      "mesh": 11,
      "name": "Object_13"
    },
    {
      "mesh": 12,
      "name": "Object_14"
    },
    {
      "mesh": 13,
      "name": "Object_15"
    },
    {
      "mesh": 14,
      "name": "Object_16"
    },
    {
      "mesh": 15,
      "name": "Object_17"
    },
    {
      "mesh": 16,
      "name": "Object_18"
    },
    {
      "mesh": 17,
      "name": "Object_19"
    },
    {
      "mesh": 18,
      "name": "Object_20"
    },
    {
      "mesh": 19,
      "name": "Object_21"
    },
    {
      "mesh": 20,
      "name": "Object_22"
    },
    {
      "mesh": 21,
      "name": "Object_23"
    },
    {
      "mesh": 22,
      "name": "Object_24"
    },
    {
      "mesh": 23,
      "name": "Object_25"
    },
    {
      "mesh": 24,
      "name": "Object_26"
    },
    {
      "mesh": 25,
      "name": "Object_27"
    },
    {
      "mesh": 26,
      "name": "Object_28"
    },
    {
      "mesh": 27,
      "name": "Object_29"
    }
  ],
  "samplers": [
    {
      "magFilter": 9729,
      "minFilter": 9987,
      "wrapS": 10497,
      "wrapT": 10497
    }
  ],
  "scene": 0,
  "scenes": [
    {
      "name": "Sketchfab_Scene",
      "nodes": [
        0
      ]
    }
  ],
  "textures": [
    {
      "sampler": 0,
      "source": 0
    },
    {
      "sampler": 0,
      "source": 1
    }
  ]
}
